<svg width="564" height="64" viewBox="0 0 564 64" fill="none" xmlns="http://www.w3.org/2000/svg">
<path d="M38 31.7812V39.7812H54.7105C51.4783 49.2169 42.5313 56 32 56C18.7452 56 8 45.2548 8 32C8 18.7452 18.7452 8 32 8C41.765 8 50.1679 13.8319 53.9158 22.2028L60.8574 18.1535C55.6947 7.41364 44.7131 0 32 0C14.3269 0 0 14.3269 0 32C0 49.6731 14.3269 64 32 64C49.6731 64 64 49.6731 64 32C64 31.927 63.9998 31.8541 63.9993 31.7812H38Z" fill="white"/>
<path fill-rule="evenodd" clip-rule="evenodd" d="M116 56C129.255 56 140 45.2548 140 32C140 18.7452 129.255 8 116 8C102.745 8 92 18.7452 92 32C92 45.2548 102.745 56 116 56ZM116 64C133.673 64 148 49.6731 148 32C148 14.3269 133.673 0 116 0C98.3269 0 84 14.3269 84 32C84 49.6731 98.3269 64 116 64Z" fill="white"/>
<path fill-rule="evenodd" clip-rule="evenodd" d="M200 56C213.255 56 224 45.2548 224 32C224 18.7452 213.255 8 200 8C186.745 8 176 18.7452 176 32C176 45.2548 186.745 56 200 56ZM200 64C217.673 64 232 49.6731 232 32C232 14.3269 217.673 0 200 0C182.327 0 168 14.3269 168 32C168 49.6731 182.327 64 200 64Z" fill="white"/>
<path d="M308 19C308 25.8949 304.123 31.8844 298.431 34.9076C295.916 36.2433 293.046 37 290 37L308 61H298L274 29H290C295.523 29 300 24.5228 300 19C300 13.4772 295.523 9 290 9H260V61H252V1H290C299.941 1 308 9.05888 308 19Z" fill="white"/>
<path fill-rule="evenodd" clip-rule="evenodd" d="M360 56C373.255 56 384 45.2548 384 32C384 18.7452 373.255 8 360 8C346.745 8 336 18.7452 336 32C336 45.2548 346.745 56 360 56ZM360 64C377.673 64 392 49.6731 392 32C392 14.3269 377.673 0 360 0C342.327 0 328 14.3269 328 32C328 49.6731 342.327 64 360 64Z" fill="white"/>
<path fill-rule="evenodd" clip-rule="evenodd" d="M444 56C457.255 56 468 45.2548 468 32C468 18.7452 457.255 8 444 8C430.745 8 420 18.7452 420 32C420 45.2548 430.745 56 444 56ZM444 64C461.673 64 476 49.6731 476 32C476 14.3269 461.673 0 444 0C426.327 0 412 14.3269 412 32C412 49.6731 426.327 64 444 64Z" fill="white"/>
<path d="M564 0L530 28L496 0V61H504V16.9519L530 38.3636L556 16.9519V16.9702L564 10.382V0Z" fill="white"/>
<path d="M564 28.7456L556 35.3339V61H564V28.7456Z" fill="white"/>
</svg>
